<?xml version="1.0" encoding="utf-8"?>
<!-- Generator: Adobe Illustrator 27.1.1, SVG Export Plug-In . SVG Version: 6.00 Build 0)  -->
<svg version="1.1" xmlns="http://www.w3.org/2000/svg" xmlns:xlink="http://www.w3.org/1999/xlink" x="0px" y="0px"
	 viewBox="0 0 500 500" style="enable-background:new 0 0 500 500;" xml:space="preserve">
<style type="text/css">
	.st0{fill-rule:evenodd;clip-rule:evenodd;fill:#ffffff;}
	.st1{fill:#ffffff;}
	.st2{fill-rule:evenodd;clip-rule:evenodd;fill:#ffffff;}
</style>
<g id="Profilo">
</g>
<g id="Log_out">
</g>
<g id="Sincronizza">
</g>
<g id="Carico">
</g>
<g id="Giacenza">
</g>
<g id="Scarico">
</g>
<g id="Reintegro">
</g>
<g id="Documenti">
	<path class="st1" d="M473.3,67.3L408,2c-1.3-1.3-3.1-2-4.9-2H128.4c-3.8,0-6.9,3.1-6.9,6.9c0,0,0,0,0,0v21.2L30.7,39.5
		c-3.8,0.5-6.5,4-6,7.8c0,0,0,0,0,0l56.1,446.7c0.4,3.5,3.4,6.1,6.9,6.1c0.3,0,0.6,0,0.9-0.1l285.7-35.9h94.2c3.8,0,6.9-3.1,6.9-6.9
		V72.3C475.4,70.4,474.6,68.6,473.3,67.3z M171,108.7h98.6c3.8,0,6.9,3.1,6.9,7c0,3.8-3.1,6.9-6.9,6.9H171c-3.8,0-6.9-3.1-6.9-6.9
		C164.1,111.8,167.2,108.7,171,108.7z M171,134.9h177.5c3.8,0,6.9,3.1,6.9,7c0,3.8-3.1,6.9-6.9,6.9H171c-3.8,0-6.9-3.1-6.9-6.9
		C164.1,138,167.2,134.9,171,134.9z M93.7,485.3L39.3,52.4l82.1-10.3v415.1c0,3.8,3.1,6.9,6.9,6.9c0,0,0,0,0,0h134.4L93.7,485.3z
		 M432.7,358.7c0,3.8-3.1,6.9-6.9,6.9H171c-3.8,0.1-7-2.9-7.1-6.8s2.9-7,6.8-7.1c0.1,0,0.3,0,0.4,0h254.7
		C429.6,351.7,432.7,354.8,432.7,358.7C432.7,358.7,432.7,358.7,432.7,358.7z M425.8,325.6C425.8,325.6,425.8,325.6,425.8,325.6H171
		c-3.8,0.1-7-2.9-7.1-6.8s2.9-7,6.8-7.1c0.1,0,0.3,0,0.4,0h254.7c3.8,0,6.9,3.1,6.9,6.9C432.7,322.5,429.6,325.6,425.8,325.6z
		 M425.8,285.5C425.8,285.5,425.8,285.5,425.8,285.5H171c-3.8,0.1-7-2.9-7.1-6.8s2.9-7,6.8-7.1c0.1,0,0.3,0,0.4,0h254.7
		c3.8,0,6.9,3.1,6.9,6.9C432.7,282.4,429.6,285.5,425.8,285.5z M425.8,245.5C425.8,245.5,425.8,245.5,425.8,245.5H171
		c-3.8,0.1-7-2.9-7.1-6.8c-0.1-3.8,2.9-7,6.8-7.1c0.1,0,0.3,0,0.4,0h254.7c3.8,0,6.9,3.1,6.9,6.9
		C432.7,242.4,429.6,245.5,425.8,245.5z M425.8,205.5C425.8,205.5,425.8,205.5,425.8,205.5H171c-3.8,0.1-7-2.9-7.1-6.8
		c-0.1-3.8,2.9-7,6.8-7.1c0.1,0,0.3,0,0.4,0h254.7c3.8,0,6.9,3.1,6.9,6.9C432.7,202.4,429.6,205.5,425.8,205.5z M397.1,78.3V10.8
		l67.5,67.5H397.1z"/>
</g>
<g id="Clienti">
</g>
<g id="Stampe">
</g>
<g id="Statistiche">
</g>
<g id="Partite_Aperte">
</g>
<g id="Partite_scadute">
</g>
<g id="Fatturato">
</g>
<g id="Indietro">
</g>
<g id="Attrezzatura">
</g>
<g id="Codice">
</g>
<g id="Matricola">
</g>
<g id="Note">
</g>
<g id="Data">
</g>
<g id="Attività_effettuate">
</g>
<g id="Nuovo">
</g>
<g id="Cessione">
</g>
<g id="Ritiro">
</g>
<g id="Seleziona">
</g>
</svg>
