<?xml version="1.0" encoding="utf-8"?>
<!-- Generator: Adobe Illustrator 27.1.1, SVG Export Plug-In . SVG Version: 6.00 Build 0)  -->
<svg version="1.1" xmlns="http://www.w3.org/2000/svg" xmlns:xlink="http://www.w3.org/1999/xlink" x="0px" y="0px"
	 viewBox="0 0 500 500" style="enable-background:new 0 0 500 500;" xml:space="preserve">
<style type="text/css">
	.st0{fill-rule:evenodd;clip-rule:evenodd;fill:#ffffff;}
	.st1{fill:#ffffff;}
	.st2{fill-rule:evenodd;clip-rule:evenodd;fill:#ffffff;}
</style>
<g id="Profilo">
</g>
<g id="Log_out">
</g>
<g id="Sincronizza">
</g>
<g id="Carico">
</g>
<g id="Giacenza">
</g>
<g id="Scarico">
</g>
<g id="Reintegro">
</g>
<g id="Documenti">
</g>
<g id="Clienti">
</g>
<g id="Stampe">
</g>
<g id="Statistiche">
</g>
<g id="Partite_Aperte">
</g>
<g id="Partite_scadute">
</g>
<g id="Fatturato">
	<g>
		<g>
			<g>
				<g>
					<polygon class="st1" points="337.2,413.4 337.2,438 361.8,413.4 					"/>
					<g>
						<rect x="171.3" y="204.4" class="st1" width="162.8" height="17.5"/>
						<rect x="115.6" y="170.3" class="st1" width="39.1" height="17.5"/>
						<rect x="171.3" y="238.6" class="st1" width="162.8" height="17.5"/>
						<rect x="115.6" y="238.6" class="st1" width="39.1" height="17.5"/>
						<rect x="115.6" y="204.4" class="st1" width="39.1" height="17.5"/>
						<rect x="171.3" y="170.3" class="st1" width="162.8" height="17.5"/>
					</g>
					<path class="st1" d="M113,52l0.1,48.9c-0.9,13.8,7.9,22.7,18.7,22.8c17.6,0.3,20.9-8.9,21.1-24.2c0-0.3,0-14.5,0-14.5
						s0.2-5.7-5.5-5.7c-6.2,0-6,5.7-6,5.7v13.2h-16.6c0,0-0.2-6.3,0-13.2c0.5-15.9,10.9-22.3,21.9-22.2c12.1,0.1,22,9.8,22,21.9
						c0.1,13,0.1,23.9-2.7,32.1c-5.5,16-17.9,23-33.4,23c-21.1,0-36.1-10.4-36.1-35.2c0-0.2,0-43.8,0-52.9H76.3v392.2
						c0,3.1,2.5,5.6,5.6,5.6l19.9,0h218.8v-44.6c0-4.6,3.7-8.3,8.3-8.3c0,0,0,0,0,0h44.6V52H113z M99,264.4
						C99,264.4,99,264.4,99,264.4V161.9c0-4.6,3.7-8.3,8.3-8.3c0,0,0,0,0,0h235.2c4.6,0,8.3,3.7,8.3,8.3c0,0,0,0,0,0v102.5
						c0,4.6-3.7,8.3-8.3,8.3c0,0,0,0,0,0v0H107.3C102.7,272.7,99,269,99,264.4z M266.2,347c0.1-4.5,3.7-8.1,8.1-8.1h68.2
						c4.6,0.1,8.2,3.9,8.1,8.5c-0.1,4.4-3.7,8-8.1,8.1v0h-68.2C269.7,355.4,266.1,351.6,266.2,347z M342.5,380.7
						C342.5,380.7,342.5,380.7,342.5,380.7L342.5,380.7l-42.9,0c-4.6-0.1-8.2-3.9-8.2-8.5c0.1-4.5,3.7-8.1,8.2-8.2h42.9
						c4.6,0,8.3,3.7,8.3,8.3S347.1,380.7,342.5,380.7z"/>
					<path class="st1" d="M96.4,42.9c0,0,0-5.8,0-7.2c0-0.2,0-0.4,0-0.6C96.7,15.4,112.8-0.3,132.5,0c24.1,0.6,35,16.5,36.3,37.1
						c0.3,4.2,0.1,5.8,0.1,5.8H152c0,0,0.3-2.9,0-7.7c-0.6-10.8-9.1-19.4-19.8-19.2c-10.8,0.2-19.4,9.1-19.2,19.8v7.1L96.4,42.9z"/>
					<path class="st1" d="M93.2,466.4v11.9c0,12,9.7,21.7,21.7,21.7l287.1,0c12,0,21.7-9.7,21.7-21.7l0-385.9
						c0-12-9.7-21.7-21.7-21.7h-11.9c0,0,0.1,334.4-0.1,335.5l0,0l0,0v0c0,0.3-0.1,0.7-0.2,1l0,0l0,0v0l0,0l0,0l0,0
						c-0.4,1.4-1.1,2.6-2.1,3.7l0,0l0,0v0l0,0h0l0,0l0,0l-53,53l0,0l0,0c-1,1-2.3,1.7-3.6,2.1l0,0c-0.4,0.1-0.8,0.2-1.2,0.2h-0.1
						l0,0h0C329.2,466.5,93.2,466.4,93.2,466.4z"/>
				</g>
			</g>
		</g>
	</g>
</g>
<g id="Indietro">
</g>
<g id="Attrezzatura">
</g>
<g id="Codice">
</g>
<g id="Matricola">
</g>
<g id="Note">
</g>
<g id="Data">
</g>
<g id="Attività_effettuate">
</g>
<g id="Nuovo">
</g>
<g id="Cessione">
</g>
<g id="Ritiro">
</g>
<g id="Seleziona">
</g>
</svg>
