<?xml version="1.0" encoding="utf-8"?>
<!-- Generator: Adobe Illustrator 27.1.1, SVG Export Plug-In . SVG Version: 6.00 Build 0)  -->
<svg version="1.1" xmlns="http://www.w3.org/2000/svg" xmlns:xlink="http://www.w3.org/1999/xlink" x="0px" y="0px"
	 viewBox="0 0 500 500" style="enable-background:new 0 0 500 500;" xml:space="preserve">
<style type="text/css">
	.st0{fill-rule:evenodd;clip-rule:evenodd;fill:#ffffff;}
	.st1{fill:#ffffff;}
	.st2{fill-rule:evenodd;clip-rule:evenodd;fill:#ffffff;}
</style>
<g id="Profilo">
</g>
<g id="Log_out">
</g>
<g id="Sincronizza">
</g>
<g id="Carico">
</g>
<g id="Giacenza">
</g>
<g id="Scarico">
</g>
<g id="Reintegro">
</g>
<g id="Documenti">
</g>
<g id="Clienti">
</g>
<g id="Stampe">
</g>
<g id="Statistiche">
</g>
<g id="Partite_Aperte">
</g>
<g id="Partite_scadute">
</g>
<g id="Fatturato">
</g>
<g id="Indietro">
</g>
<g id="Attrezzatura">
</g>
<g id="Codice">
</g>
<g id="Matricola">
	<g>
		<g>
			<path class="st1" d="M335,100.3c0,4.7-3.8,8.5-8.5,8.5H173.5c-4.7,0-8.5-3.8-8.5-8.5V67.8h-47.4C100.1,67.8,86,81.9,86,99.4
				v369.1c0,17.4,14.1,31.5,31.5,31.5h264.9c17.4,0,31.5-14.1,31.5-31.5V99.4c0-17.4-14.1-31.5-31.5-31.5H335V100.3z M339,434.8
				H161.1c-5.5,0-10-4.5-10-10s4.5-10,10-10H339c5.5,0,10,4.5,10,10S344.5,434.8,339,434.8z M339,349.5H161.1c-5.5,0-10-4.5-10-10
				s4.5-10,10-10H339c5.5,0,10,4.5,10,10S344.5,349.5,339,349.5z M339,264.3H161.1c-5.5,0-10-4.5-10-10c0-5.5,4.5-10,10-10H339
				c5.5,0,10,4.5,10,10C349,259.8,344.5,264.3,339,264.3z M339,180.3H161.1c-5.5,0-10-4.5-10-10s4.5-10,10-10H339
				c5.5,0,10,4.5,10,10S344.5,180.3,339,180.3z"/>
			<path class="st1" d="M320.6,39.7h-30.9C289.7,17.8,271.9,0,250,0c-21.9,0-39.7,17.8-39.7,39.7h-31c-4.4,0-7.9,3.5-7.9,7.9v45.1
				c0,4.4,3.5,7.9,7.9,7.9h141.3c4.4,0,7.9-3.5,7.9-7.9V47.5C328.5,43.2,324.9,39.7,320.6,39.7z"/>
		</g>
	</g>
</g>
<g id="Note">
</g>
<g id="Data">
</g>
<g id="Attività_effettuate">
</g>
<g id="Nuovo">
</g>
<g id="Cessione">
</g>
<g id="Ritiro">
</g>
<g id="Seleziona">
</g>
</svg>
