<?xml version="1.0" encoding="utf-8"?>
<!-- Generator: Adobe Illustrator 27.1.1, SVG Export Plug-In . SVG Version: 6.00 Build 0)  -->
<svg version="1.1" xmlns="http://www.w3.org/2000/svg" xmlns:xlink="http://www.w3.org/1999/xlink" x="0px" y="0px"
	 viewBox="0 0 500 500" style="enable-background:new 0 0 500 500;" xml:space="preserve">
<style type="text/css">
	.st0{fill-rule:evenodd;clip-rule:evenodd;fill:#ffffff;}
	.st1{fill:#ffffff;}
	.st2{fill-rule:evenodd;clip-rule:evenodd;fill:#ffffff;}
</style>
<g id="Profilo">
</g>
<g id="Log_out">
</g>
<g id="Sincronizza">
</g>
<g id="Carico">
</g>
<g id="Giacenza">
</g>
<g id="Scarico">
</g>
<g id="Reintegro">
</g>
<g id="Documenti">
</g>
<g id="Clienti">
</g>
<g id="Stampe">
</g>
<g id="Statistiche">
</g>
<g id="Partite_Aperte">
</g>
<g id="Partite_scadute">
</g>
<g id="Fatturato">
</g>
<g id="Indietro">
</g>
<g id="Attrezzatura">
</g>
<g id="Codice">
</g>
<g id="Matricola">
</g>
<g id="Note">
</g>
<g id="Data">
</g>
<g id="Attività_effettuate">
</g>
<g id="Nuovo">
	<path class="st0" d="M467.4,217.3H282.1V32.7C281.3,15.1,267,0.8,249.5,0c-17.6,0.8-31.8,15.1-32.6,32.7v184.6H32.6
		C15.1,218.1,0,233.2,0,250c0,18.5,14.2,32.7,32.6,32.7l184.5,0.7l0.7,183.9c0,18.5,14.2,32.7,32.6,32.7c16.7,0,31.8-15.1,32.6-32.7
		V282.7h184.2c17.6-0.8,31.8-15.1,32.6-32.7C499.2,232.4,484.9,218.1,467.4,217.3z"/>
</g>
<g id="Cessione">
</g>
<g id="Ritiro">
</g>
<g id="Seleziona">
</g>
</svg>
