<?xml version="1.0" encoding="utf-8"?>
<!-- Generator: Adobe Illustrator 27.1.1, SVG Export Plug-In . SVG Version: 6.00 Build 0)  -->
<svg version="1.1" xmlns="http://www.w3.org/2000/svg" xmlns:xlink="http://www.w3.org/1999/xlink" x="0px" y="0px"
	 viewBox="0 0 500 500" style="enable-background:new 0 0 500 500;" xml:space="preserve">
<style type="text/css">
	.st0{fill-rule:evenodd;clip-rule:evenodd;fill:#ffffff;}
	.st1{fill:#ffffff;}
	.st2{fill-rule:evenodd;clip-rule:evenodd;fill:#ffffff;}
</style>
<g id="Profilo">
</g>
<g id="Log_out">
</g>
<g id="Sincronizza">
</g>
<g id="Carico">
</g>
<g id="Giacenza">
</g>
<g id="Scarico">
</g>
<g id="Reintegro">
</g>
<g id="Documenti">
</g>
<g id="Clienti">
</g>
<g id="Stampe">
</g>
<g id="Statistiche">
</g>
<g id="Partite_Aperte">
</g>
<g id="Partite_scadute">
</g>
<g id="Fatturato">
</g>
<g id="Indietro">
</g>
<g id="Attrezzatura">
</g>
<g id="Codice">
</g>
<g id="Matricola">
</g>
<g id="Note">
</g>
<g id="Data">
</g>
<g id="Attività_effettuate">
	<g>
		<path class="st1" d="M15.8,470.3l13.8,13.8c21.1,21.1,55.4,21.1,76.5,0L324.3,266c46.5,14.2,99.1,2.9,135.9-33.9
			c39-39,49.3-95.8,31-144.2c-1.1-3-5.1-3.8-7.3-1.5l-63,63c-5.8,5.8-15.3,5.8-21.1,0l-49.2-49.2c-5.8-5.8-5.8-15.3,0-21.1l63-63
			c2.3-2.3,1.4-6.3-1.7-7.4c-48.4-18.2-105.1-7.9-144,31c-36.8,36.8-48,89.4-33.9,135.9L15.8,393.9C-5.3,415-5.3,449.2,15.8,470.3z"
			/>
	</g>
</g>
<g id="Nuovo">
</g>
<g id="Cessione">
</g>
<g id="Ritiro">
</g>
<g id="Seleziona">
</g>
</svg>
